<?xml version='1.0' encoding='UTF-8' standalone='no'?>
<svg width="296.926mm" version="1.2" xmlns="http://www.w3.org/2000/svg" height="209.973mm" viewBox="0 0 3507 2480" xmlns:xlink="http://www.w3.org/1999/xlink" baseProfile="tiny" xmlns:inkscape="http://www.inkscape.org/namespaces/inkscape">
 <defs/>
 <g fill="none" inkscape:label="Layer 1" inkscape:groupmode="layer" stroke="black" fill-rule="evenodd" stroke-linejoin="bevel" stroke-linecap="square" id="Layer 1" stroke-width="1">
  <g stroke-opacity="1" fill="none" font-family="MS Shell Dlg 2" stroke="#000000" stroke-linejoin="bevel" font-style="normal" stroke-linecap="square" font-weight="400" stroke-width="1" transform="matrix(1,0,0,1,0,0)" font-size="34.375"/>
  <g stroke-opacity="1" fill="none" font-family="MS Shell Dlg 2" stroke="#000000" stroke-linejoin="bevel" font-style="normal" stroke-linecap="square" font-weight="400" stroke-width="1" transform="matrix(11.8081,0,0,11.8081,0,0)" font-size="34.375"/>
  <g fill="#ffffff" font-family="MS Shell Dlg 2" stroke="none" font-style="normal" fill-opacity="1" font-weight="400" transform="matrix(0.999751,0,0,0.999751,0,0)" font-size="34.375">
   <path fill-rule="evenodd" vector-effect="none" d="M-1,-1 L3508.87,-1 L3508.87,2481.31 L-1,2481.31 L-1,-1"/>
  </g>
  <g stroke-opacity="1" fill="none" font-family="MS Shell Dlg 2" stroke="#000000" stroke-linejoin="bevel" font-style="normal" stroke-linecap="square" font-weight="400" stroke-width="1" transform="matrix(11.8081,0,0,11.8081,0,0)" font-size="34.375"/>
  <g stroke-opacity="1" fill="none" font-family="MS Shell Dlg 2" stroke="#000000" stroke-linejoin="bevel" font-style="normal" stroke-linecap="square" font-weight="400" stroke-width="1" transform="matrix(11.8081,0,0,11.8081,0,0)" font-size="34.375"/>
  <g stroke-opacity="1" fill="none" font-family="MS Shell Dlg 2" stroke="#000000" stroke-linejoin="bevel" font-style="normal" stroke-linecap="square" font-weight="400" stroke-width="1" transform="matrix(11.8081,0,0,11.8081,0,0)" font-size="34.375"/>
  <g stroke-opacity="1" fill="none" font-family="MS Shell Dlg 2" stroke="#000000" stroke-linejoin="bevel" font-style="normal" stroke-linecap="square" font-weight="400" stroke-width="1" transform="matrix(11.8081,0,0,11.8081,0,0)" font-size="34.375"/>
  <g stroke-opacity="1" fill="none" font-family="MS Shell Dlg 2" stroke="#000000" stroke-linejoin="bevel" font-style="normal" stroke-linecap="square" font-weight="400" stroke-width="1" transform="matrix(1,0,0,1,0,0)" font-size="34.375"/>
 </g>
 <defs/>
 <g fill="none" inkscape:label="Layer 2" inkscape:groupmode="layer" stroke="black" fill-rule="evenodd" stroke-linejoin="bevel" stroke-linecap="square" id="Layer 2" stroke-width="1">
  <g stroke-opacity="1" fill="none" font-family="MS Shell Dlg 2" stroke="#000000" stroke-linejoin="bevel" font-style="normal" stroke-linecap="square" font-weight="400" stroke-width="1" transform="matrix(1,0,0,1,0,0)" font-size="34.375"/>
  <g stroke-opacity="1" fill="none" font-family="MS Shell Dlg 2" stroke="#000000" stroke-linejoin="bevel" font-style="normal" stroke-linecap="square" font-weight="400" stroke-width="1" transform="matrix(11.8081,0,0,11.8081,0,-11.8081)" font-size="34.375"/>
  <g stroke-opacity="1" fill="none" font-family="MS Shell Dlg 2" stroke="#000000" stroke-linejoin="bevel" font-style="normal" stroke-linecap="square" font-weight="400" stroke-width="1" transform="matrix(11.8081,0,0,11.8081,0,-11.8081)" font-size="34.375"/>
  <g fill="#ffffff" font-family="MS Shell Dlg 2" stroke="none" font-style="normal" fill-opacity="1" font-weight="400" transform="matrix(11.8081,0,0,11.8081,0,-11.8081)" font-size="34.375">
   <path fill-rule="evenodd" vector-effect="non-scaling-stroke" d="M0,0 L297,0 L297,212 L0,212 L0,0"/>
  </g>
  <g stroke-opacity="1" fill="none" font-family="MS Shell Dlg 2" stroke="#000000" stroke-linejoin="bevel" font-style="normal" stroke-linecap="square" font-weight="400" stroke-width="1" transform="matrix(11.8081,0,0,11.8081,0,-11.8081)" font-size="34.375"/>
  <g fill="#000000" font-family="MS Shell Dlg 2" stroke="none" font-style="normal" fill-opacity="0" font-weight="400" transform="matrix(0.999751,0,0,0.999751,0,-11.8081)" font-size="34.375">
   <path fill-rule="evenodd" vector-effect="non-scaling-stroke" d="M0,0 L3508,0 L3508,2504 L0,2504 L0,0"/>
  </g>
  <g stroke-opacity="1" fill="none" font-family="MS Shell Dlg 2" stroke="#000000" stroke-linejoin="bevel" font-style="normal" stroke-linecap="square" font-weight="400" stroke-width="1" transform="matrix(11.8081,0,0,11.8081,0,-11.8081)" font-size="34.375"/>
  <g stroke-opacity="1" fill="none" font-family="MS Shell Dlg 2" stroke="#000000" stroke-linejoin="bevel" font-style="normal" stroke-linecap="square" font-weight="400" stroke-width="1" transform="matrix(11.8081,0,0,11.8081,0,-11.8081)" font-size="34.375"/>
  <g stroke-opacity="1" fill="none" font-family="MS Shell Dlg 2" stroke="#000000" stroke-linejoin="bevel" font-style="normal" stroke-linecap="square" font-weight="400" stroke-width="1" transform="matrix(11.8081,0,0,11.8081,0,-11.8081)" font-size="34.375"/>
  <g stroke-opacity="1" fill="none" font-family="MS Shell Dlg 2" stroke="#000000" stroke-linejoin="bevel" font-style="normal" stroke-linecap="square" font-weight="400" stroke-width="1" transform="matrix(1,0,0,1,0,0)" font-size="34.375"/>
  <g stroke-opacity="1" fill="none" font-family="MS Shell Dlg 2" stroke="#000000" stroke-linejoin="bevel" font-style="normal" stroke-linecap="square" font-weight="400" stroke-width="1" transform="matrix(11.8081,0,0,11.8081,0,-11.8081)" font-size="34.375"/>
  <g stroke-opacity="1" fill="none" font-family="MS Shell Dlg 2" stroke="#000000" stroke-linejoin="bevel" font-style="normal" stroke-linecap="square" font-weight="400" stroke-width="1" transform="matrix(11.8081,0,0,11.8081,0,-11.8081)" font-size="34.375"/>
  <g stroke-opacity="1" fill="none" font-family="MS Shell Dlg 2" stroke="#000000" stroke-linejoin="bevel" font-style="normal" stroke-linecap="square" font-weight="400" stroke-width="1" transform="matrix(11.8081,0,0,11.8081,0,0)" font-size="34.375"/>
  <g stroke-opacity="1" fill="none" font-family="MS Shell Dlg 2" stroke="#000000" stroke-linejoin="bevel" font-style="normal" stroke-linecap="square" font-weight="400" stroke-width="1" transform="matrix(11.8081,0,0,11.8081,0,0)" font-size="34.375"/>
  <g stroke-opacity="1" fill="none" font-family="MS Shell Dlg 2" stroke="#000000" stroke-linejoin="bevel" font-style="normal" stroke-linecap="square" font-weight="400" stroke-width="1" transform="matrix(1,0,0,1,0,0)" font-size="34.375"/>
 </g>
 <defs/>
 <g fill="none" inkscape:label="Layer 3" inkscape:groupmode="layer" stroke="black" fill-rule="evenodd" stroke-linejoin="bevel" stroke-linecap="square" id="Layer 3" stroke-width="1">
  <g stroke-opacity="1" fill="none" font-family="MS Shell Dlg 2" stroke="#000000" stroke-linejoin="bevel" font-style="normal" stroke-linecap="square" font-weight="400" stroke-width="1" transform="matrix(1,0,0,1,0,0)" font-size="34.375"/>
  <g stroke-opacity="1" fill="none" font-family="MS Shell Dlg 2" stroke="#000000" stroke-linejoin="bevel" font-style="normal" stroke-linecap="square" font-weight="400" stroke-width="1" transform="matrix(11.8081,0,0,11.8081,0,-11.8081)" font-size="34.375"/>
  <g stroke-opacity="1" fill="none" font-family="MS Shell Dlg 2" stroke="#000000" stroke-linejoin="bevel" font-style="normal" stroke-linecap="square" font-weight="400" stroke-width="1" transform="matrix(11.8081,0,0,11.8081,0,-11.8081)" font-size="34.375"/>
  <g fill="#000000" font-family="MS Shell Dlg 2" stroke="none" font-style="normal" fill-opacity="0" font-weight="400" transform="matrix(0.999751,0,0,0.999751,0,-11.8081)" font-size="34.375">
   <path fill-rule="evenodd" vector-effect="non-scaling-stroke" d="M0,0 L3508,0 L3508,2504 L0,2504 L0,0"/>
  </g>
  <g stroke-opacity="1" fill="#c051e5" font-family="MS Shell Dlg 2" stroke="#000000" stroke-linejoin="bevel" font-style="normal" fill-opacity="1" stroke-linecap="square" font-weight="400" stroke-width="3.07087" transform="matrix(0.999751,0,0,0.999751,0,-11.8081)" font-size="34.375">
   <path fill-rule="evenodd" vector-effect="none" d="M3610.36,1298.41 L3584.31,1338.59 L3443.12,1241.35 L3471.1,1201.93 L3610.36,1298.41"/>
   <path fill-rule="evenodd" vector-effect="none" d="M3278.72,1128.12 L3138.6,1031.62 L3166.22,990.727 L3305.67,1087.33 L3278.72,1128.12"/>
   <path fill-rule="evenodd" vector-effect="none" d="M3278.72,1128.12 L3305.67,1087.33 L3471.1,1201.93 L3443.12,1241.35 L3278.72,1128.12"/>
   <path fill-rule="evenodd" vector-effect="none" d="M3283.17,1380.03 L3218.47,1472.39 L3129.1,1414.33 L3194.12,1319.38 L3283.17,1380.03"/>
   <path fill-rule="evenodd" vector-effect="none" d="M3123.02,1020.89 L3138.6,1031.62 L3278.72,1128.12 L3443.12,1241.35 L3584.31,1338.59 L3595.67,1346.42 L3585.05,1381.15 L3580.39,1379.68 L3528.53,1547.13 L3283.17,1380.03 L3194.12,1319.38 L2960.28,1160.11 L3095.84,1049.67 L3092.49,1044.98 L3123.02,1020.89"/>
   <path fill-rule="evenodd" vector-effect="none" d="M3422.82,1888.43 L3276.1,2362.16 L3175.97,2406.51 L2700.89,2207.71 L2827.97,1891.62 L2962.12,1949.12 L3050.75,1909.4 L3090.04,1783.34 L3422.82,1888.43"/>
   <path fill-rule="evenodd" vector-effect="none" d="M3422.82,1888.43 L3090.04,1783.34 L3134.01,1637.06 L3031.34,1564.07 L2900.93,1669.23 L2681.25,1387.44 L2960.28,1160.11 L3194.12,1319.38 L3129.1,1414.33 L3218.47,1472.39 L3283.17,1380.03 L3528.53,1547.13 L3422.82,1888.43"/>
   <path fill-rule="evenodd" vector-effect="none" d="M1886.95,22.6691 L1911.5,53.0699 L1865.8,89.0011 L1886.95,22.6691"/>
   <path fill-rule="evenodd" vector-effect="none" d="M1953.39,104.917 L1927.22,126.087 L1899.67,90.3436 L1911.5,53.0699 L1953.39,104.917"/>
   <path fill-rule="evenodd" vector-effect="none" d="M186.25,357.852 L123.697,315.76 L151.308,269.658 L127.007,255.076 L190.187,154.148 L269.161,196.027 L186.25,357.852"/>
   <path fill-rule="evenodd" vector-effect="none" d="M951.183,290.829 L839.174,259.992 L899.106,62.2308 L1032.22,118.584 L970.351,250.085 L951.183,290.829"/>
   <path fill-rule="evenodd" vector-effect="none" d="M410.065,43.7111 L550.871,86.8792 L470.342,284.634 L306.71,269.071 L410.065,43.7111"/>
   <path fill-rule="evenodd" vector-effect="none" d="M655.032,110.625 L740.63,137.265 L706.731,223.528 L618.731,199.301 L655.032,110.625"/>
   <path fill-rule="evenodd" vector-effect="none" d="M1275.67,-203.042 L1312.43,-190.179 L1308.08,-179.205 L1211.37,64.4795 L1096.12,-0.445237 L1123.96,-57.7855 L1049.97,-94.3193 L1122.78,-241.2 L1272.6,-193.446 L1275.67,-203.042"/>
   <path fill-rule="evenodd" vector-effect="none" d="M970.351,250.085 L1032.22,118.584 L1109.37,148.41 L1068.2,268.356 L1063.13,283.126 L970.351,250.085"/>
   <path fill-rule="evenodd" vector-effect="none" d="M909.725,-157.779 L975.793,-125.137 L899.37,27.3878 L865.384,17.4166 L750.563,-16.2702 L816.894,-183.19 L823.865,-200.2 L909.725,-157.779"/>
   <path fill-rule="evenodd" vector-effect="none" d="M1792,-25.0041 L1614.3,479.402 L1471.66,428.606 L1493.94,367.675 L1470.5,359.568 L1599.55,-10.0253 L1622.21,-2.78045 L1644.73,-70.8416 L1792,-25.0041"/>
   <path fill-rule="evenodd" vector-effect="none" d="M711.652,-27.6863 L750.563,-16.2702 L865.384,17.4166 L870.576,61.9715 L885.125,56.3118 L899.106,62.2308 L839.174,259.992 L706.731,223.528 L740.63,137.265 L655.032,110.625 L711.652,-27.6863"/>
   <path fill-rule="evenodd" vector-effect="none" d="M951.183,290.829 L804.352,649.03 L452.668,604.966 L618.731,199.301 L706.731,223.528 L839.174,259.992 L951.183,290.829"/>
   <path fill-rule="evenodd" vector-effect="none" d="M65.7551,-46.7857 L338.091,61.4894 L269.161,196.027 L190.187,154.148 L127.007,255.076 L151.308,269.658 L123.697,315.76 L186.25,357.852 L152.324,424.069 L108.276,561.816 L-186.747,524.852 L-230.215,428.181 L65.7551,-46.7857"/>
   <path fill-rule="evenodd" vector-effect="none" d="M1998.11,-250.574 L1981.06,-198.223 L2071.84,-94.7419 L2131.44,-140.186 L2415.28,140.179 L2422.59,147.027 L2160.59,361.42 L1969.76,125.186 L2041.28,65.2526 L1985.32,-4.958 L1911.5,53.0699 L1886.95,22.6691 L1883.26,18.1076 L1797.55,-40.7559 L1865.71,-250.585"/>
   <path fill-rule="evenodd" vector-effect="none" d="M1792,-25.0041 L1797.55,-40.7559 L1883.26,18.1076 L1886.95,22.6691 L1865.8,89.0011 L1849.63,139.696 L1889.48,192.46 L1969.76,125.186 L2160.59,361.42 L1679.49,755.105 L1524.62,733.949 L1614.3,479.402 L1792,-25.0041"/>
   <path fill-rule="evenodd" vector-effect="none" d="M1252.85,350.687 L1471.66,428.606 L1614.3,479.402 L1524.62,733.949 L1508.25,778.862 L804.352,649.03 L951.183,290.829 L970.351,250.085 L1063.13,283.126 L1135.25,308.805 L1252.85,350.687"/>
   <path fill-rule="evenodd" vector-effect="none" d="M2097.77,-250.565 L2142.2,-236.042 L2151.54,-250.56 L2152.4,-250.56 L2167.7,-239.646 L2163.88,-233.065 L2295.21,-144.856 L2301.32,-152.01 L2318.38,-140.51 L2313.29,-132.844 L2493.84,-8.97258 L2499.07,-15.9524 L2514.19,-4.92858 L2415.28,140.179 L2131.44,-140.186 L2019.69,-250.572"/>
   <path fill-rule="evenodd" vector-effect="none" d="M711.652,-27.6863 L655.032,110.625 L618.731,199.301 L452.668,604.966 L470.342,284.634 L550.871,86.8792 L410.065,43.7111 L427.255,-115.773 L711.652,-27.6863"/>
   <path fill-rule="evenodd" vector-effect="none" d="M65.7551,-46.7857 L-15.6983,-79.1858 L79.2021,-250.737 L397.572,-250.711 L476.802,-214.277 L435.241,-131.65 L321.663,-183.111 L288.771,-121.124 L395.122,-51.8909 L338.091,61.4894 L65.7551,-46.7857"/>
   <path fill-rule="evenodd" vector-effect="none" d="M410.065,43.7111 L306.71,269.071 L470.342,284.634 L452.668,604.966 L108.276,561.816 L152.324,424.069 L186.25,357.852 L269.161,196.027 L338.091,61.4894 L395.122,-51.8909 L427.255,-115.773 L410.065,43.7111"/>
   <path fill-rule="evenodd" vector-effect="none" d="M1275.67,-203.042 L1272.6,-193.446 L1122.78,-241.2 L1049.97,-94.3193 L1123.96,-57.7855 L1096.12,-0.445237 L1088.61,-4.67506 L1032.22,118.584 L899.106,62.2308 L885.125,56.3118 L899.37,27.3878 L975.793,-125.137 L1038.68,-250.657 L1291.7,-250.636 L1275.67,-203.042"/>
   <path fill-rule="evenodd" vector-effect="none" d="M1252.85,350.687 L1135.25,308.805 L1139.88,295.594 L1181.71,176.373 L1109.37,148.41 L1032.22,118.584 L1088.61,-4.67506 L1096.12,-0.445237 L1211.37,64.4795 L1308.08,-179.205 L1426.38,-142.392 L1404.39,-75.4706 L1425.05,-68.8449 L1292.1,295.213 L1274.63,289.239 L1252.85,350.687"/>
   <path fill-rule="evenodd" vector-effect="none" d="M1276.26,2754.54 L1140.91,2688.39 L1300.3,2343 L1356.81,2377.52 L1375.01,2371.05 L1547.13,2467.52 L1454.53,2635.69 L1416.54,2704.67 L1461.91,2731.58 L1500.66,2754.55"/>
   <path fill-rule="evenodd" vector-effect="none" d="M1461.91,2731.58 L1499.85,2661.22 L1454.53,2635.69 L1547.13,2467.52 L1890.73,2660.09 L1895.53,2681.62 L1861.57,2754.59 L1500.66,2754.55 L1461.91,2731.58"/>
   <path fill-rule="evenodd" vector-effect="none" d="M577.363,2754.48 L1209.95,2242.43 L1069.32,2621.5 L1025.15,2664.53 L882.727,2754.5"/>
   <path fill-rule="evenodd" vector-effect="none" d="M-141.717,2567.29 L-269.479,2411.44 L-271.653,2386.79 L-272.945,2372.14 L-187.748,2361.54 L-194.303,2295.24 L-224.166,2270.18 L-279.477,2298.08 L-280.221,2289.64 L-290.051,2289.64 L-350.969,2076.3 L-350.965,2027.39 L447.477,1951.77 L495.013,2051.61 L-141.717,2567.29"/>
   <path fill-rule="evenodd" vector-effect="none" d="M882.727,2754.5 L1025.15,2664.53 L1090.08,2745.9 L1113.2,2677.81 L1069.32,2621.5 L1209.95,2242.43 L1331.37,2274.44 L1300.3,2343 L1140.91,2688.39 L1118.08,2754.52"/>
   <path fill-rule="evenodd" vector-effect="none" d="M252.086,1186.27 L272.776,1127.99 L364.95,1150.81 L338.093,1225.33 L252.086,1186.27"/>
   <path fill-rule="evenodd" vector-effect="none" d="M-112.662,1338.65 L-159.94,1325.21 L-241.489,1302.02 L-186.234,1157.46 L-174.51,1126.78 L-345.501,1091.01 L-310.097,983.649 L27.0799,1067.14 L-35.3719,1106.36 L-112.662,1338.65"/>
   <path fill-rule="evenodd" vector-effect="none" d="M311.326,1299.6 L338.093,1225.33 L364.95,1150.81 L483.118,822.938 L595.873,840.027 L258.698,1725.03 L154.353,1734.43 L195.739,1619.88 L207.903,1586.21 L225.239,1538.23 L260.022,1441.95 L311.326,1299.6"/>
   <path fill-rule="evenodd" vector-effect="none" d="M139.762,1250.38 L202.781,1268.46 L311.326,1299.6 L260.022,1441.95 L76.1926,1391.67 L139.762,1250.38"/>
   <path fill-rule="evenodd" vector-effect="none" d="M139.762,1250.38 L76.1926,1391.67 L-36.5237,1360.09 L55.2908,1074.13 L199.66,1109.88 L193.031,1131.99 L139.762,1250.38"/>
   <path fill-rule="evenodd" vector-effect="none" d="M272.776,1127.99 L199.66,1109.88 L294.276,794.318 L483.118,822.938 L364.95,1150.81 L272.776,1127.99"/>
   <path fill-rule="evenodd" vector-effect="none" d="M139.762,1250.38 L193.031,1131.99 L199.66,1109.88 L272.776,1127.99 L252.086,1186.27 L248.605,1184.68 L223.853,1203.42 L202.781,1268.46 L139.762,1250.38"/>
   <path fill-rule="evenodd" vector-effect="none" d="M137.71,1605.59 L195.739,1619.88 L154.353,1734.43 L-168.732,1757.59 L-142.222,1554.32 L-110.917,1441.11 L-101.05,1405.43 L-84.775,1346.58 L-36.5237,1360.09 L76.1926,1391.67 L260.022,1441.95 L225.239,1538.23 L100.174,1488.01 L78.9361,1591.11 L137.71,1605.59"/>
   <path fill-rule="evenodd" vector-effect="none" d="M199.66,1109.88 L55.2908,1074.13 L27.0799,1067.14 L-310.097,983.649 L-227.766,733.976 L-226.731,728.27 L294.276,794.318 L199.66,1109.88"/>
   <path fill-rule="evenodd" vector-effect="none" d="M2900.93,1669.23 L2766.7,1779.63 L2757.55,1864.53 L2827.97,1891.62 L2700.89,2207.71 L2455.26,2104.92 L2346.91,1951.57 L2387.08,1627.12 L2681.25,1387.44 L2900.93,1669.23"/>
  </g>
  <g stroke-opacity="1" fill="none" font-family="MS Shell Dlg 2" stroke="#000000" stroke-linejoin="bevel" font-style="normal" stroke-linecap="square" font-weight="400" stroke-width="1" transform="matrix(11.8081,0,0,11.8081,0,-11.8081)" font-size="34.375"/>
  <g stroke-opacity="1" fill="none" font-family="MS Shell Dlg 2" stroke="#000000" stroke-linejoin="bevel" font-style="normal" stroke-linecap="square" font-weight="400" stroke-width="1" transform="matrix(11.8081,0,0,11.8081,0,-11.8081)" font-size="34.375"/>
  <g stroke-opacity="1" fill="none" font-family="MS Shell Dlg 2" stroke="#000000" stroke-linejoin="bevel" font-style="normal" stroke-linecap="square" font-weight="400" stroke-width="1" transform="matrix(11.8081,0,0,11.8081,0,-11.8081)" font-size="34.375"/>
  <g stroke-opacity="1" fill="none" font-family="MS Shell Dlg 2" stroke="#000000" stroke-linejoin="bevel" font-style="normal" stroke-linecap="square" font-weight="400" stroke-width="1" transform="matrix(1,0,0,1,0,0)" font-size="34.375"/>
  <g stroke-opacity="1" fill="none" font-family="MS Shell Dlg 2" stroke="#000000" stroke-linejoin="bevel" font-style="normal" stroke-linecap="square" font-weight="400" stroke-width="1" transform="matrix(11.8081,0,0,11.8081,0,-11.8081)" font-size="34.375"/>
  <g stroke-opacity="1" fill="none" font-family="MS Shell Dlg 2" stroke="#000000" stroke-linejoin="bevel" font-style="normal" stroke-linecap="square" font-weight="400" stroke-width="1" transform="matrix(11.8081,0,0,11.8081,0,-11.8081)" font-size="34.375"/>
  <g stroke-opacity="1" fill="none" font-family="MS Shell Dlg 2" stroke="#000000" stroke-linejoin="bevel" font-style="normal" stroke-linecap="square" font-weight="400" stroke-width="1" transform="matrix(11.8081,0,0,11.8081,0,0)" font-size="34.375"/>
  <g stroke-opacity="1" fill="none" font-family="MS Shell Dlg 2" stroke="#000000" stroke-linejoin="bevel" font-style="normal" stroke-linecap="square" font-weight="400" stroke-width="1" transform="matrix(11.8081,0,0,11.8081,0,0)" font-size="34.375"/>
  <g stroke-opacity="1" fill="none" font-family="MS Shell Dlg 2" stroke="#000000" stroke-linejoin="bevel" font-style="normal" stroke-linecap="square" font-weight="400" stroke-width="1" transform="matrix(1,0,0,1,0,0)" font-size="34.375"/>
 </g>
 <defs/>
 <g fill="none" inkscape:label="Layer 4" inkscape:groupmode="layer" stroke="black" fill-rule="evenodd" stroke-linejoin="bevel" stroke-linecap="square" id="Layer 4" stroke-width="1">
  <g stroke-opacity="1" fill="none" font-family="MS Shell Dlg 2" stroke="#000000" stroke-linejoin="bevel" font-style="normal" stroke-linecap="square" font-weight="400" stroke-width="1" transform="matrix(1,0,0,1,0,0)" font-size="34.375"/>
  <g stroke-opacity="1" fill="none" font-family="MS Shell Dlg 2" stroke="#000000" stroke-linejoin="bevel" font-style="normal" stroke-linecap="square" font-weight="400" stroke-width="1" transform="matrix(11.8081,0,0,11.8081,0,-11.8081)" font-size="34.375"/>
  <g stroke-opacity="1" fill="none" font-family="MS Shell Dlg 2" stroke="#000000" stroke-linejoin="bevel" font-style="normal" stroke-linecap="square" font-weight="400" stroke-width="1" transform="matrix(11.8081,0,0,11.8081,0,-11.8081)" font-size="34.375"/>
  <g fill="#000000" font-family="MS Shell Dlg 2" stroke="none" font-style="normal" fill-opacity="0" font-weight="400" transform="matrix(0.999751,0,0,0.999751,0,-11.8081)" font-size="34.375">
   <path fill-rule="evenodd" vector-effect="non-scaling-stroke" d="M0,0 L3508,0 L3508,2504 L0,2504 L0,0"/>
  </g>
  <g stroke-opacity="1" fill="none" font-family="MS Shell Dlg 2" stroke="#2ec382" stroke-linejoin="bevel" font-style="normal" stroke-linecap="square" font-weight="400" stroke-width="3.07087" transform="matrix(0.999751,0,0,0.999751,0,-11.8081)" font-size="34.375">
   <path fill-rule="evenodd" vector-effect="none" d="M1202.6,722.788 L1201.81,727.197"/>
   <path fill-rule="evenodd" vector-effect="none" d="M1527.59,787.078 L1525.91,795.111"/>
   <path fill-rule="evenodd" vector-effect="none" d="M824.367,660.324 L1201.81,727.197"/>
   <path fill-rule="evenodd" vector-effect="none" d="M636.203,634.379 L635.27,642.56"/>
   <path fill-rule="evenodd" vector-effect="none" d="M816.321,654.645 L815.389,662.788"/>
   <path fill-rule="evenodd" vector-effect="none" d="M291.895,785.779 L83.7247,763.307"/>
   <path fill-rule="evenodd" vector-effect="none" d="M34.5875,757.849 L-213.33,725.1"/>
   <path fill-rule="evenodd" vector-effect="none" d="M83.2397,767.79 L83.7247,763.307"/>
   <path fill-rule="evenodd" vector-effect="none" d="M291.41,790.224 L291.895,785.779"/>
   <path fill-rule="evenodd" vector-effect="none" d="M631.508,639.496 L456.865,619.83"/>
   <path fill-rule="evenodd" vector-effect="none" d="M632.143,633.893 L631.508,639.496"/>
   <path fill-rule="evenodd" vector-effect="none" d="M839.21,1922.86 L631.92,2099.52"/>
   <path fill-rule="evenodd" vector-effect="none" d="M1067.48,2131.88 L920.867,1960.71"/>
   <path fill-rule="evenodd" vector-effect="none" d="M1711.92,1272.91 L1948.72,1053.8"/>
   <path fill-rule="evenodd" vector-effect="none" d="M-179.984,2754.42 L-55.9623,2654.85 L548.058,2172.22 L567.99,2155.78 L631.92,2099.52"/>
   <path fill-rule="evenodd" vector-effect="none" d="M-87.1723,-250.75 L-102.359,-223.775 L-175.013,-96.301 L-350.838,217.857"/>
   <path fill-rule="evenodd" vector-effect="none" d="M2332.57,2506.39 L2309.62,2499.81 L2174.46,2547.96 L2072.27,2754.61"/>
   <path fill-rule="evenodd" vector-effect="none" d="M631.92,2099.52 L645.291,2079.85 L655.661,2058.42 L662.811,2035.72 L666.584,2012.21 L668.032,1988.99 L665.475,1965.88 L658.994,1943.54 L648.779,1922.66 L635.135,1903.86 L618.358,1886.57 L599.016,1872.23 L577.619,1861.21 L554.729,1853.8 L530.945,1850.2 L277.771,1871.03 L-350.958,1918.09"/>
   <path fill-rule="evenodd" vector-effect="none" d="M1067.48,2131.88 L1296.6,1937.8 L1860.32,1461.38 L1879.72,1448.15 L1900.92,1438.08 L1923.42,1431.42 L1946.68,1428.33 L1970.13,1428.87 L1993.22,1433.04 L2015.39,1440.74 L2037.96,1454.38 L2057.98,1471.58 L2074.91,1491.84 L2088.27,1514.63 L2096.17,1536.93 L2101.07,1560.08 L2102.89,1583.67 L2101.6,1607.3 L2055.39,2189.13 L2032.84,2425.92 L2018.21,2500.08 L1992.66,2571.22 L1939.87,2685.28 L1908.02,2754.59 L400.818,2754.46 L743.166,2479.39 L1070.94,2214.07 L1067.48,2131.88"/>
   <path fill-rule="evenodd" vector-effect="none" d="M1114.52,2281.81 L1135.75,2308.3"/>
   <path fill-rule="evenodd" vector-effect="none" d=""/>
   <path fill-rule="evenodd" vector-effect="none" d="M2387.16,2345.96 L2276.15,2299.96 L2264.45,2295.42 L2252.16,2292.96 L2239.63,2292.66 L2227.23,2294.53 L2215.34,2298.5 L2204.31,2304.46 L2194.46,2312.23 L2186.09,2321.59 L2179.45,2332.25 L2174.73,2343.9 L2172.08,2356.18 L2171.58,2368.74 L2162.71,2457.22 L2141.47,2543.55 L2108.27,2626 L2050.07,2754.6 L3457.59,2754.73 L3858.91,1481.61 L3859.06,-153.943 L3816.04,-132.037 L3774.59,-101.713 L3629.64,16.9801 L3468.03,147.845"/>
   <path fill-rule="evenodd" vector-effect="none" d="M2324.85,2090.03 L2311.58,2076.52 L2300.67,2061.02 L2292.41,2043.96 L2287.02,2025.77 L2284.65,2006.96 L2285.35,1988 L2330.57,1438.1 L2332.63,1397.02 L2328.04,1356.14 L2316.94,1316.54 L2299.62,1279.25 L2276.52,1245.25 L2267.02,1228.24 L2260.54,1209.87 L2257.25,1190.65 L2257.27,1171.16 L2260.58,1151.95 L2267.09,1133.58 L2276.62,1116.59 L2288.88,1101.46 L2303.53,1088.64 L2426.91,986.932 L3468.03,147.845"/>
   <path fill-rule="evenodd" vector-effect="none" d="M1367.21,2216.97 L1241.52,2179.53"/>
   <path fill-rule="evenodd" vector-effect="none" d="M1233.03,2208.14 L1213.28,2202.28"/>
   <path fill-rule="evenodd" vector-effect="none" d="M1319.09,743.795 L1317.41,751.828"/>
   <path fill-rule="evenodd" vector-effect="none" d="M635.27,642.56 L815.389,662.788"/>
   <path fill-rule="evenodd" vector-effect="none" d="M1317.41,751.828 L1525.91,795.111"/>
   <path fill-rule="evenodd" vector-effect="none" d="M825.151,655.915 L824.367,660.324"/>
   <path fill-rule="evenodd" vector-effect="none" d="M33.9919,762.293 L34.5875,757.849"/>
   <path fill-rule="evenodd" vector-effect="none" d="M3172.51,-53.6409 L2239.73,699.939 L2260.44,783.744 L2000.28,1027.21 L1984.14,1038.97 L1966.34,1048.02 L1947.32,1054.12 L1927.58,1057.12 L1907.62,1056.93 L1887.94,1053.56 L1869.05,1047.09 L1851.41,1037.7 L1835.5,1025.62 L1779.78,986.427 L1719.36,955.015 L1655.32,931.941 L838.557,719.543 L569.701,671.847 L-151.74,578.31 L-177.928,574.636 L-203.084,566.52 L-226.488,554.209 L-247.446,538.062 L-265.344,518.56 L-279.65,496.274 L-289.946,471.864 L-295.927,446.048 L-297.417,419.585 L-294.372,393.257 L-286.882,367.838 L-41.87,-68.2682 L8.46582,-159.988 L59.357,-250.738"/>
   <path fill-rule="evenodd" vector-effect="none" d="M-350.95,1806.13 L-77.2823,1784.69 L607.397,1733 L630.721,1734.46 L653.504,1739.67 L675.15,1748.5 L695.092,1760.72 L712.805,1776 L727.83,1793.95 L829.971,1918.56 L920.867,1960.71 L1146.78,1771.12 L1662.85,1333.43 L1682.63,1315.42 L1699.37,1294.54 L1712.69,1271.3 L1722.25,1246.28 L1727.83,1220.07 L1729.3,1193.31 L1727.1,1161.13 L1720.98,1129.46 L1713.52,1110.15 L1703.05,1092.3 L1689.82,1076.39 L1674.2,1062.84 L1656.6,1052.02 L1637.48,1044.19 L1610.09,1037 L815.19,827.369 L640.847,797.725 L-130.366,696.412 L-247.006,686.577 L-350.87,680.321"/>
   <path fill-rule="evenodd" vector-effect="none" d="M2260.44,783.744 L2426.91,986.932 L2492.32,1020.45 L3478.6,225.669 L3468.03,147.845"/>
   <path fill-rule="evenodd" vector-effect="none" d="M562.847,2174.54 L598.084,2217.54 L621.108,2198.57 L585.87,2155.56 L562.847,2174.54"/>
   <path fill-rule="evenodd" vector-effect="none" d="M216.299,2451.62 L250.866,2495.15 L274.187,2476.54 L239.582,2433.02 L216.299,2451.62"/>
   <path fill-rule="evenodd" vector-effect="none" d="M1233.03,2208.14 L1241.52,2179.53"/>
   <path fill-rule="evenodd" vector-effect="none" d="M2671.96,1399.92 L2610.39,1320.59 L2922.82,1068.88 L2989.31,1151.6"/>
   <path fill-rule="evenodd" vector-effect="none" d="M494.227,1182.2 L579.31,1212.4 L648.084,1175.19 L738.406,903.094 L605.564,858.735"/>
   <path fill-rule="evenodd" vector-effect="none" d="M87.8911,2399.08 L111.098,2428.22 L518.671,2100.22 L495.427,2069.32"/>
   <path fill-rule="evenodd" vector-effect="none" d="M1348.1,2281.46 L1367.21,2216.97"/>
   <path fill-rule="evenodd" vector-effect="none" d="M1147.94,2254.91 L1168.8,2280.96"/>
  </g>
  <g stroke-opacity="1" fill="none" font-family="MS Shell Dlg 2" stroke="#000000" stroke-linejoin="bevel" font-style="normal" stroke-linecap="square" font-weight="400" stroke-width="1" transform="matrix(11.8081,0,0,11.8081,0,-11.8081)" font-size="34.375"/>
  <g stroke-opacity="1" fill="none" font-family="MS Shell Dlg 2" stroke="#000000" stroke-linejoin="bevel" font-style="normal" stroke-linecap="square" font-weight="400" stroke-width="1" transform="matrix(11.8081,0,0,11.8081,0,-11.8081)" font-size="34.375"/>
  <g stroke-opacity="1" fill="none" font-family="MS Shell Dlg 2" stroke="#000000" stroke-linejoin="bevel" font-style="normal" stroke-linecap="square" font-weight="400" stroke-width="1" transform="matrix(11.8081,0,0,11.8081,0,-11.8081)" font-size="34.375"/>
  <g stroke-opacity="1" fill="none" font-family="MS Shell Dlg 2" stroke="#000000" stroke-linejoin="bevel" font-style="normal" stroke-linecap="square" font-weight="400" stroke-width="1" transform="matrix(1,0,0,1,0,0)" font-size="34.375"/>
  <g stroke-opacity="1" fill="none" font-family="MS Shell Dlg 2" stroke="#000000" stroke-linejoin="bevel" font-style="normal" stroke-linecap="square" font-weight="400" stroke-width="1" transform="matrix(11.8081,0,0,11.8081,0,-11.8081)" font-size="34.375"/>
  <g stroke-opacity="1" fill="none" font-family="MS Shell Dlg 2" stroke="#000000" stroke-linejoin="bevel" font-style="normal" stroke-linecap="square" font-weight="400" stroke-width="1" transform="matrix(11.8081,0,0,11.8081,0,-11.8081)" font-size="34.375"/>
  <g stroke-opacity="1" fill="none" font-family="MS Shell Dlg 2" stroke="#000000" stroke-linejoin="bevel" font-style="normal" stroke-linecap="square" font-weight="400" stroke-width="1" transform="matrix(11.8081,0,0,11.8081,0,0)" font-size="34.375"/>
  <g stroke-opacity="1" fill="none" font-family="MS Shell Dlg 2" stroke="#000000" stroke-linejoin="bevel" font-style="normal" stroke-linecap="square" font-weight="400" stroke-width="1" transform="matrix(11.8081,0,0,11.8081,0,0)" font-size="34.375"/>
  <g stroke-opacity="1" fill="none" font-family="MS Shell Dlg 2" stroke="#000000" stroke-linejoin="bevel" font-style="normal" stroke-linecap="square" font-weight="400" stroke-width="1" transform="matrix(1,0,0,1,0,0)" font-size="34.375"/>
 </g>
 <defs/>
 <g fill="none" inkscape:label="Layer 5" inkscape:groupmode="layer" stroke="black" fill-rule="evenodd" stroke-linejoin="bevel" stroke-linecap="square" id="Layer 5" stroke-width="1">
  <g stroke-opacity="1" fill="none" font-family="MS Shell Dlg 2" stroke="#000000" stroke-linejoin="bevel" font-style="normal" stroke-linecap="square" font-weight="400" stroke-width="1" transform="matrix(1,0,0,1,0,0)" font-size="34.375"/>
  <g stroke-opacity="1" fill="none" font-family="MS Shell Dlg 2" stroke="#000000" stroke-linejoin="bevel" font-style="normal" stroke-linecap="square" font-weight="400" stroke-width="1" transform="matrix(11.8081,0,0,11.8081,0,-11.8081)" font-size="34.375"/>
  <g stroke-opacity="1" fill="none" font-family="MS Shell Dlg 2" stroke="#000000" stroke-linejoin="bevel" font-style="normal" stroke-linecap="square" font-weight="400" stroke-width="1" transform="matrix(11.8081,0,0,11.8081,0,-11.8081)" font-size="34.375"/>
  <g fill="#000000" font-family="MS Shell Dlg 2" stroke="none" font-style="normal" fill-opacity="0" font-weight="400" transform="matrix(0.999751,0,0,0.999751,0,-11.8081)" font-size="34.375">
   <path fill-rule="evenodd" vector-effect="non-scaling-stroke" d="M0,0 L3508,0 L3508,2504 L0,2504 L0,0"/>
  </g>
  <g stroke-opacity="1" fill="none" font-family="MS Shell Dlg 2" stroke="#000000" stroke-linejoin="bevel" font-style="normal" stroke-linecap="square" font-weight="400" stroke-width="1" transform="matrix(11.8081,0,0,11.8081,0,-11.8081)" font-size="34.375"/>
  <g stroke-opacity="1" fill="none" font-family="MS Shell Dlg 2" stroke="#000000" stroke-linejoin="bevel" font-style="normal" stroke-linecap="square" font-weight="400" stroke-width="1" transform="matrix(11.8081,0,0,11.8081,0,-11.8081)" font-size="34.375"/>
  <g stroke-opacity="1" fill="none" font-family="MS Shell Dlg 2" stroke="#000000" stroke-linejoin="bevel" font-style="normal" stroke-linecap="square" font-weight="400" stroke-width="1" transform="matrix(11.8081,0,0,11.8081,0,-11.8081)" font-size="34.375"/>
  <g stroke-opacity="1" fill="none" font-family="MS Shell Dlg 2" stroke="#000000" stroke-linejoin="bevel" font-style="normal" stroke-linecap="square" font-weight="400" stroke-width="1" transform="matrix(1,0,0,1,0,0)" font-size="34.375"/>
  <g stroke-opacity="1" fill="none" font-family="MS Shell Dlg 2" stroke="#000000" stroke-linejoin="bevel" font-style="normal" stroke-linecap="square" font-weight="400" stroke-width="1" transform="matrix(11.8081,0,0,11.8081,0,-11.8081)" font-size="34.375"/>
  <g stroke-opacity="1" fill="none" font-family="MS Shell Dlg 2" stroke="#000000" stroke-linejoin="bevel" font-style="normal" stroke-linecap="square" font-weight="400" stroke-width="1" transform="matrix(11.8081,0,0,11.8081,0,-11.8081)" font-size="34.375"/>
  <g stroke-opacity="1" fill="none" font-family="MS Shell Dlg 2" stroke="#000000" stroke-linejoin="bevel" font-style="normal" stroke-linecap="square" font-weight="400" stroke-width="1" transform="matrix(11.8081,0,0,11.8081,0,0)" font-size="34.375"/>
  <g stroke-opacity="1" fill="none" font-family="MS Shell Dlg 2" stroke="#000000" stroke-linejoin="bevel" font-style="normal" stroke-linecap="square" font-weight="400" stroke-width="1" transform="matrix(11.8081,0,0,11.8081,0,0)" font-size="34.375"/>
  <g stroke-opacity="1" fill="none" font-family="MS Shell Dlg 2" stroke="#000000" stroke-linejoin="bevel" font-style="normal" stroke-linecap="square" font-weight="400" stroke-width="1" transform="matrix(1,0,0,1,0,0)" font-size="34.375"/>
 </g>
 <defs/>
 <g fill="none" inkscape:label="Layer 6" inkscape:groupmode="layer" stroke="black" fill-rule="evenodd" stroke-linejoin="bevel" stroke-linecap="square" id="Layer 6" stroke-width="1">
  <g stroke-opacity="1" fill="none" font-family="MS Shell Dlg 2" stroke="#000000" stroke-linejoin="bevel" font-style="normal" stroke-linecap="square" font-weight="400" stroke-width="1" transform="matrix(1,0,0,1,0,0)" font-size="34.375"/>
  <g stroke-opacity="1" fill="none" font-family="MS Shell Dlg 2" stroke="#000000" stroke-linejoin="bevel" font-style="normal" stroke-linecap="square" font-weight="400" stroke-width="1" transform="matrix(11.8081,0,0,11.8081,0,-11.8081)" font-size="34.375"/>
  <g stroke-opacity="1" fill="none" font-family="MS Shell Dlg 2" stroke="#000000" stroke-linejoin="bevel" font-style="normal" stroke-linecap="square" font-weight="400" stroke-width="1" transform="matrix(11.8081,0,0,11.8081,0,-11.8081)" font-size="34.375"/>
  <g fill="#000000" font-family="MS Shell Dlg 2" stroke="none" font-style="normal" fill-opacity="0" font-weight="400" transform="matrix(0.999751,0,0,0.999751,0,-11.8081)" font-size="34.375">
   <path fill-rule="evenodd" vector-effect="non-scaling-stroke" d="M0,0 L3508,0 L3508,2504 L0,2504 L0,0"/>
  </g>
  <g stroke-opacity="1" fill="none" font-family="MS Shell Dlg 2" stroke="#000000" stroke-linejoin="bevel" font-style="normal" stroke-linecap="square" font-weight="400" stroke-width="1" transform="matrix(11.8081,0,0,11.8081,0,-11.8081)" font-size="34.375"/>
  <g stroke-opacity="1" fill="none" font-family="MS Shell Dlg 2" stroke="#000000" stroke-linejoin="bevel" font-style="normal" stroke-linecap="square" font-weight="400" stroke-width="1" transform="matrix(11.8081,0,0,11.8081,0,-11.8081)" font-size="34.375"/>
  <g stroke-opacity="1" fill="none" font-family="MS Shell Dlg 2" stroke="#000000" stroke-linejoin="bevel" font-style="normal" stroke-linecap="square" font-weight="400" stroke-width="1" transform="matrix(11.8081,0,0,11.8081,0,-11.8081)" font-size="34.375"/>
  <g stroke-opacity="1" fill="none" font-family="MS Shell Dlg 2" stroke="#000000" stroke-linejoin="bevel" font-style="normal" stroke-linecap="square" font-weight="400" stroke-width="1" transform="matrix(1,0,0,1,0,0)" font-size="34.375"/>
  <g stroke-opacity="1" fill="none" font-family="MS Shell Dlg 2" stroke="#000000" stroke-linejoin="bevel" font-style="normal" stroke-linecap="square" font-weight="400" stroke-width="1" transform="matrix(11.8081,0,0,11.8081,0,-11.8081)" font-size="34.375"/>
  <g stroke-opacity="1" fill="none" font-family="MS Shell Dlg 2" stroke="#000000" stroke-linejoin="bevel" font-style="normal" stroke-linecap="square" font-weight="400" stroke-width="1" transform="matrix(11.8081,0,0,11.8081,0,-11.8081)" font-size="34.375"/>
  <g stroke-opacity="1" fill="none" font-family="MS Shell Dlg 2" stroke="#000000" stroke-linejoin="bevel" font-style="normal" stroke-linecap="square" font-weight="400" stroke-width="1" transform="matrix(11.8081,0,0,11.8081,0,0)" font-size="34.375"/>
  <g stroke-opacity="1" fill="none" font-family="MS Shell Dlg 2" stroke="#000000" stroke-linejoin="bevel" font-style="normal" stroke-linecap="square" font-weight="400" stroke-width="1" transform="matrix(11.8081,0,0,11.8081,0,0)" font-size="34.375"/>
  <g stroke-opacity="1" fill="none" font-family="MS Shell Dlg 2" stroke="#000000" stroke-linejoin="bevel" font-style="normal" stroke-linecap="square" font-weight="400" stroke-width="1" transform="matrix(1,0,0,1,0,0)" font-size="34.375"/>
 </g>
</svg>
