<?xml version="1.0" encoding="UTF-8" standalone="no"?>
<!-- Created with Inkscape (http://www.inkscape.org/) -->

<svg
   xmlns:dc="http://purl.org/dc/elements/1.1/"
   xmlns:cc="http://creativecommons.org/ns#"
   xmlns:rdf="http://www.w3.org/1999/02/22-rdf-syntax-ns#"
   xmlns:svg="http://www.w3.org/2000/svg"
   xmlns="http://www.w3.org/2000/svg"
   xmlns:sodipodi="http://sodipodi.sourceforge.net/DTD/sodipodi-0.dtd"
   xmlns:inkscape="http://www.inkscape.org/namespaces/inkscape"
   width="869.95001"
   height="201.49625"
   id="svg2434"
   sodipodi:version="0.32"
   inkscape:version="0.91 r13725"
   version="1.0"
   sodipodi:docname="logo_paris_est.svg"
   inkscape:output_extension="org.inkscape.output.svg.inkscape"
   inkscape:export-filename="W:\RemiCura\PROJETS\inverse_procedural_street_modelling\phd_defence\src\image\logo_paris_est.png"
   inkscape:export-xdpi="41.539234"
   inkscape:export-ydpi="41.539234">
  <defs
     id="defs2436">
    <clipPath
       clipPathUnits="userSpaceOnUse"
       id="clipPath17">
      <path
         d="M 0,0 L 841.89,0 L 841.89,1190.551 L 0,1190.551 L 0,0 z"
         id="path19" />
    </clipPath>
    <inkscape:perspective
       sodipodi:type="inkscape:persp3d"
       inkscape:vp_x="0 : 526.18109 : 1"
       inkscape:vp_y="0 : 1000 : 0"
       inkscape:vp_z="744.09448 : 526.18109 : 1"
       inkscape:persp3d-origin="372.04724 : 350.78739 : 1"
       id="perspective2442" />
  </defs>
  <sodipodi:namedview
     id="base"
     pagecolor="#ffffff"
     bordercolor="#666666"
     borderopacity="1.0"
     inkscape:pageopacity="0.0"
     inkscape:pageshadow="2"
     inkscape:zoom="0.35"
     inkscape:cx="12.142857"
     inkscape:cy="520"
     inkscape:document-units="px"
     inkscape:current-layer="layer1"
     showgrid="false"
     inkscape:window-width="781"
     inkscape:window-height="720"
     inkscape:window-x="0"
     inkscape:window-y="25"
     inkscape:window-maximized="0" />
  <metadata
     id="metadata2439">
    <rdf:RDF>
      <cc:Work
         rdf:about="">
        <dc:format>image/svg+xml</dc:format>
        <dc:type
           rdf:resource="http://purl.org/dc/dcmitype/StillImage" />
      </cc:Work>
    </rdf:RDF>
  </metadata>
  <g
     inkscape:label="Calque 1"
     inkscape:groupmode="layer"
     id="layer1"
     transform="translate(632.11786,168.3859)">
    <g
       transform="matrix(1.25,0,0,-1.25,-724.42161,1153.9766)"
       id="g13">
      <g
         id="g15"
         clip-path="url(#clipPath17)">
        <path
           d="M 97.154,1001.772 C 87.677,1001.772 81.026,1007.23 81.026,1015.958 L 81.026,1045.401 L 85.106,1045.401 L 85.106,1016.581 C 85.106,1009.745 90.192,1005.661 97.344,1005.661 C 103.936,1005.661 108.958,1008.743 108.958,1017.085 L 108.958,1045.401 L 113.038,1045.401 L 113.038,1016.085 C 113.038,1006.734 105.693,1001.772 97.154,1001.772"
           style="fill:#743f18;fill-opacity:1;fill-rule:nonzero;stroke:none"
           id="path21" />
        <path
           d="M 162.315,1002.206 L 136.263,1039.747 L 136.263,1002.206 L 132.179,1002.206 L 132.179,1045.401 L 137.075,1045.401 L 163.316,1007.671 L 163.316,1045.401 L 167.397,1045.401 L 167.397,1002.206 L 162.315,1002.206 z"
           style="fill:#743f18;fill-opacity:1;fill-rule:nonzero;stroke:none"
           id="path23" />
        <path
           d="M 187.483,1045.401 L 191.5,1045.401 L 191.5,1002.207 L 187.483,1002.207 L 187.483,1045.401 z"
           style="fill:#743f18;fill-opacity:1;fill-rule:nonzero;stroke:none"
           id="path25" />
        <path
           d="M 226.773,1002.206 L 223.643,1002.206 L 207.195,1044.517 L 211.146,1045.771 L 225.33,1009.366 L 239.83,1045.897 L 243.474,1044.644 L 226.773,1002.206 z"
           style="fill:#743f18;fill-opacity:1;fill-rule:nonzero;stroke:none"
           id="path27" />
        <path
           d="M 263.182,1041.568 L 263.182,1026.319 L 280.382,1026.319 L 280.382,1022.55 L 263.182,1022.55 L 263.182,1005.976 L 281.762,1005.976 L 281.762,1002.206 L 259.164,1002.206 L 259.164,1045.401 L 281.762,1045.401 L 281.762,1041.568 L 263.182,1041.568 z"
           style="fill:#743f18;fill-opacity:1;fill-rule:nonzero;stroke:none"
           id="path29" />
        <path
           d="M 320.556,1001.647 L 307.372,1021.792 L 303.225,1021.792 L 303.225,1002.206 L 299.148,1002.206 L 299.148,1045.401 L 309.69,1045.401 C 311.953,1045.401 322.188,1045.708 322.188,1034.724 C 322.188,1027.636 316.912,1023.362 311.7,1022.234 L 324.38,1003.468 L 320.556,1001.647 z M 308.499,1041.632 L 303.225,1041.632 L 303.225,1025.624 L 306.741,1025.624 C 316.668,1025.624 317.922,1031.271 317.922,1034.788 C 317.922,1041.063 312.71,1041.632 308.499,1041.632"
           style="fill:#743f18;fill-opacity:1;fill-rule:nonzero;stroke:none"
           id="path31" />
        <path
           d="M 348.609,1001.837 C 345.787,1001.837 341.584,1002.144 337.563,1006.165 L 340.078,1009.052 C 342.774,1006.355 346.418,1005.597 348.294,1005.597 C 353.01,1005.597 356.897,1008.673 356.897,1013.253 C 356.897,1019.476 352.19,1021.171 347.419,1023.362 C 341.828,1025.995 338.257,1028.384 338.257,1035.417 C 338.257,1041.253 343.776,1045.771 349.8,1045.771 C 353.316,1045.771 355.706,1045.455 360.287,1042.507 L 358.024,1039.306 C 353.759,1042.136 352.315,1041.947 349.674,1041.947 C 347.23,1041.947 342.333,1040.126 342.333,1035.103 C 342.333,1030.144 345.724,1028.511 349.548,1026.688 C 355.77,1023.804 360.973,1021.73 360.973,1013.507 C 360.973,1006.978 355.453,1001.837 348.609,1001.837"
           style="fill:#743f18;fill-opacity:1;fill-rule:nonzero;stroke:none"
           id="path33" />
        <path
           d="M 378.557,1045.401 L 382.57,1045.401 L 382.57,1002.207 L 378.557,1002.207 L 378.557,1045.401 z"
           style="fill:#743f18;fill-opacity:1;fill-rule:nonzero;stroke:none"
           id="path35" />
        <path
           d="M 414.772,1041.568 L 414.772,1002.206 L 410.694,1002.206 L 410.694,1041.568 L 396.691,1041.568 L 396.691,1045.401 L 428.515,1045.401 L 428.515,1041.568 L 414.772,1041.568 z"
           style="fill:#743f18;fill-opacity:1;fill-rule:nonzero;stroke:none"
           id="path37" />
        <path
           d="M 446.658,1041.568 L 446.658,1026.319 L 463.857,1026.319 L 463.857,1022.55 L 446.658,1022.55 L 446.658,1005.976 L 465.238,1005.976 L 465.238,1002.206 L 442.645,1002.206 L 442.645,1045.401 L 465.238,1045.401 L 465.238,1041.568 L 446.658,1041.568 z M 451.996,1047.276 L 450.049,1049.287 L 458.268,1057.89 L 461.162,1055.004 L 451.996,1047.276 z"
           style="fill:#743f18;fill-opacity:1;fill-rule:nonzero;stroke:none"
           id="path39" />
        <path
           d="M 769.803,1032.397 L 494.68,1032.397 L 494.68,1017.297 L 769.803,1017.297 L 769.803,1032.397 z"
           style="fill:#743f18;fill-opacity:1;fill-rule:nonzero;stroke:none"
           id="path41" />
        <path
           d="M 195.928,943.568 L 73.843,943.568 L 73.843,928.461 L 195.928,928.461 L 195.928,943.568 z"
           style="fill:#743f18;fill-opacity:1;fill-rule:nonzero;stroke:none"
           id="path43" />
        <path
           d="M 248.109,925.007 L 247.668,925.116 L 247.668,937.677 L 247.999,937.677 C 253.664,937.677 260.11,942.677 260.11,949.671 C 260.11,954.228 258.218,961.11 246.004,961.11 L 223.565,961.11 L 223.565,974.327 L 246.667,974.327 C 263.548,974.327 275.431,964.659 275.431,950.671 C 275.431,930.454 257.666,924.903 248.109,925.007 M 223.565,952.226 L 238.671,952.226 L 238.671,897.908 L 223.565,897.908 L 223.565,952.226 z"
           style="fill:#743f18;fill-opacity:1;fill-rule:nonzero;stroke:none"
           id="path45" />
        <path
           d="M 293.526,897.243 L 278.419,899.569 L 304.525,962.333 L 311.63,944.45 L 293.526,897.243 z M 340.063,897.243 L 331.957,918.124 L 311.299,918.124 L 315.737,930.675 L 327.179,930.675 L 309.406,974.327 L 314.626,974.327 L 325.286,974.327 L 355.501,899.128 L 340.063,897.243 z"
           style="fill:#743f18;fill-opacity:1;fill-rule:nonzero;stroke:none"
           id="path47" />
        <path
           d="M 369.828,974.327 L 384.935,974.327 L 384.935,897.907 L 369.828,897.907 L 369.828,974.327 z M 395.146,926.45 L 394.042,926.45 L 394.042,939.562 L 394.263,939.562 C 397.369,939.673 406.256,941.005 406.256,950.782 C 406.256,958.447 398.481,960.882 394.373,960.882 L 394.042,960.882 L 394.042,974.327 L 394.704,974.327 C 408.811,973.995 421.584,967.214 421.584,951.335 C 421.584,928.572 398.371,926.45 395.146,926.45 M 411.145,896.693 L 398.702,917.792 L 413.471,921.45 L 427.694,899.349 L 411.145,896.693 z"
           style="fill:#743f18;fill-opacity:1;fill-rule:nonzero;stroke:none"
           id="path49" />
        <path
           d="M 442.793,974.327 L 458.008,974.327 L 458.008,897.907 L 442.793,897.907 L 442.793,974.327 z"
           style="fill:#743f18;fill-opacity:1;fill-rule:nonzero;stroke:none"
           id="path51" />
        <path
           d="M 500.106,897.243 C 489.887,897.243 482.223,899.128 474.676,906.241 L 483.783,916.901 C 488.332,913.015 493.553,910.46 499.553,910.46 C 504.773,910.46 510.662,913.235 510.662,919.235 C 510.662,923.784 507.99,926.45 504.213,928.681 C 504.332,928.681 511.545,940.673 511.545,940.673 C 519.1,937.118 525.99,931.568 525.99,919.677 C 525.99,905.8 512.768,897.243 500.106,897.243 M 518.318,957.665 C 512.768,960.661 508.549,961.774 501.998,961.774 C 497.779,961.774 493,958.888 493,954.228 C 493,949.001 497.559,946.784 503.219,944.341 L 495.887,932.339 C 487.332,935.896 478.113,940.563 478.113,954.78 C 478.113,967.333 490.887,974.989 502.219,974.989 C 510.986,974.989 517.547,973.435 525.092,968.995 L 518.318,957.665 z"
           style="fill:#743f18;fill-opacity:1;fill-rule:nonzero;stroke:none"
           id="path53" />
        <path
           d="M 587.895,974.327 L 635.874,974.327 L 635.874,961.11 L 587.895,961.11 L 587.895,974.327 z M 587.895,952.005 L 603.114,952.005 L 603.114,897.907 L 587.895,897.907 L 587.895,952.005 z M 611.998,943.339 L 633.437,943.339 L 633.437,930.454 L 611.998,930.454 L 611.998,943.339 z M 612.109,911.122 L 635.873,911.122 L 635.873,897.907 L 612.109,897.907 L 612.109,911.122 z"
           style="fill:#743f18;fill-opacity:1;fill-rule:nonzero;stroke:none"
           id="path55" />
        <path
           d="M 674.754,897.243 C 664.527,897.243 656.871,899.128 649.316,906.241 L 658.424,916.901 C 662.982,913.015 668.201,910.46 674.193,910.46 C 679.414,910.46 685.305,913.235 685.305,919.235 C 685.305,923.784 682.639,926.45 678.861,928.681 C 678.973,928.681 686.188,940.673 686.188,940.673 C 693.74,937.118 700.633,931.568 700.633,919.677 C 700.633,905.8 687.408,897.243 674.754,897.243 M 692.969,957.665 C 687.408,960.661 683.191,961.774 676.639,961.774 C 672.42,961.774 667.643,958.888 667.643,954.228 C 667.643,949.001 672.199,946.784 677.861,944.341 L 670.535,932.339 C 661.981,935.896 652.764,940.563 652.764,954.78 C 652.764,967.333 665.529,974.989 676.859,974.989 C 685.643,974.989 692.188,973.435 699.74,968.995 L 692.969,957.665 z"
           style="fill:#743f18;fill-opacity:1;fill-rule:nonzero;stroke:none"
           id="path57" />
        <path
           d="M 709.738,974.327 L 767.381,974.327 L 767.381,961.221 L 709.738,961.221 L 709.738,974.327 z M 731.285,952.114 L 746.39,952.114 L 746.39,897.907 L 731.285,897.907 L 731.285,952.114 z"
           style="fill:#743f18;fill-opacity:1;fill-rule:nonzero;stroke:none"
           id="path59" />
        <path
           d="M 566.471,930.724 L 544.789,930.724 L 544.789,943.734 L 566.471,943.734 L 566.471,930.724 z"
           style="fill:#743f18;fill-opacity:1;fill-rule:nonzero;stroke:none"
           id="path61" />
      </g>
    </g>
  </g>
</svg>
